<mxfile host="65bd71144e">
    <diagram id="MhdVS585qV808kBaLtwS" name="System Architecture">
        <mxGraphModel dx="796" dy="681" grid="1" gridSize="10" guides="1" tooltips="1" connect="1" arrows="1" fold="1" page="1" pageScale="1" pageWidth="827" pageHeight="1169" math="0" shadow="0">
            <root>
                <mxCell id="0"/>
                <mxCell id="1" parent="0"/>
                <mxCell id="wV06e1xKJ8BwPfpu0Lhn-8" style="edgeStyle=none;html=1;entryX=1;entryY=1;entryDx=0;entryDy=0;exitX=0;exitY=0.75;exitDx=0;exitDy=0;" edge="1" parent="1" source="2" target="wV06e1xKJ8BwPfpu0Lhn-4">
                    <mxGeometry relative="1" as="geometry"/>
                </mxCell>
                <mxCell id="wV06e1xKJ8BwPfpu0Lhn-9" value="AccessToken" style="edgeLabel;html=1;align=center;verticalAlign=middle;resizable=0;points=[];" vertex="1" connectable="0" parent="wV06e1xKJ8BwPfpu0Lhn-8">
                    <mxGeometry x="0.253" y="3" relative="1" as="geometry">
                        <mxPoint as="offset"/>
                    </mxGeometry>
                </mxCell>
                <mxCell id="wV06e1xKJ8BwPfpu0Lhn-21" style="edgeStyle=none;html=1;entryX=0.75;entryY=0;entryDx=0;entryDy=0;exitX=0.75;exitY=1;exitDx=0;exitDy=0;" edge="1" parent="1" source="2" target="4">
                    <mxGeometry relative="1" as="geometry"/>
                </mxCell>
                <mxCell id="wV06e1xKJ8BwPfpu0Lhn-22" value="Ok/Forbid" style="edgeLabel;html=1;align=center;verticalAlign=middle;resizable=0;points=[];" vertex="1" connectable="0" parent="wV06e1xKJ8BwPfpu0Lhn-21">
                    <mxGeometry x="-0.2234" relative="1" as="geometry">
                        <mxPoint as="offset"/>
                    </mxGeometry>
                </mxCell>
                <mxCell id="wV06e1xKJ8BwPfpu0Lhn-24" style="edgeStyle=none;html=1;entryX=0;entryY=0;entryDx=0;entryDy=60;entryPerimeter=0;" edge="1" parent="1" source="2" target="wV06e1xKJ8BwPfpu0Lhn-23">
                    <mxGeometry relative="1" as="geometry"/>
                </mxCell>
                <mxCell id="2" value="User Account Manager" style="rounded=0;whiteSpace=wrap;html=1;" vertex="1" parent="1">
                    <mxGeometry x="320" y="210" width="150" height="50" as="geometry"/>
                </mxCell>
                <mxCell id="wV06e1xKJ8BwPfpu0Lhn-28" style="edgeStyle=none;html=1;entryX=0;entryY=0;entryDx=0;entryDy=30;entryPerimeter=0;" edge="1" parent="1" source="4" target="wV06e1xKJ8BwPfpu0Lhn-25">
                    <mxGeometry relative="1" as="geometry"/>
                </mxCell>
                <mxCell id="wV06e1xKJ8BwPfpu0Lhn-36" value="Create/edit/delete" style="edgeLabel;html=1;align=center;verticalAlign=middle;resizable=0;points=[];" vertex="1" connectable="0" parent="wV06e1xKJ8BwPfpu0Lhn-28">
                    <mxGeometry x="-0.1931" y="3" relative="1" as="geometry">
                        <mxPoint as="offset"/>
                    </mxGeometry>
                </mxCell>
                <mxCell id="wV06e1xKJ8BwPfpu0Lhn-31" style="edgeStyle=none;html=1;entryX=0.5;entryY=0;entryDx=0;entryDy=0;" edge="1" parent="1" source="4" target="wV06e1xKJ8BwPfpu0Lhn-30">
                    <mxGeometry relative="1" as="geometry"/>
                </mxCell>
                <mxCell id="wV06e1xKJ8BwPfpu0Lhn-32" value="show help lists" style="edgeLabel;html=1;align=center;verticalAlign=middle;resizable=0;points=[];" vertex="1" connectable="0" parent="wV06e1xKJ8BwPfpu0Lhn-31">
                    <mxGeometry x="0.2221" y="4" relative="1" as="geometry">
                        <mxPoint as="offset"/>
                    </mxGeometry>
                </mxCell>
                <mxCell id="4" value="API Server" style="rounded=0;whiteSpace=wrap;html=1;" vertex="1" parent="1">
                    <mxGeometry x="320" y="420" width="150" height="50" as="geometry"/>
                </mxCell>
                <mxCell id="wV06e1xKJ8BwPfpu0Lhn-4" value="User" style="ellipse;whiteSpace=wrap;html=1;" vertex="1" parent="1">
                    <mxGeometry x="50" y="215" width="90" height="40" as="geometry"/>
                </mxCell>
                <mxCell id="wV06e1xKJ8BwPfpu0Lhn-6" value="" style="endArrow=classic;html=1;exitX=1;exitY=0;exitDx=0;exitDy=0;entryX=0;entryY=0.25;entryDx=0;entryDy=0;" edge="1" parent="1" source="wV06e1xKJ8BwPfpu0Lhn-4" target="2">
                    <mxGeometry width="50" height="50" relative="1" as="geometry">
                        <mxPoint x="270" y="270" as="sourcePoint"/>
                        <mxPoint x="320" y="220" as="targetPoint"/>
                    </mxGeometry>
                </mxCell>
                <mxCell id="wV06e1xKJ8BwPfpu0Lhn-7" value="Login / Signup" style="edgeLabel;html=1;align=center;verticalAlign=middle;resizable=0;points=[];" vertex="1" connectable="0" parent="wV06e1xKJ8BwPfpu0Lhn-6">
                    <mxGeometry x="-0.4076" y="2" relative="1" as="geometry">
                        <mxPoint as="offset"/>
                    </mxGeometry>
                </mxCell>
                <mxCell id="wV06e1xKJ8BwPfpu0Lhn-10" value="Login" style="text;html=1;strokeColor=none;fillColor=none;align=center;verticalAlign=middle;whiteSpace=wrap;rounded=0;" vertex="1" parent="1">
                    <mxGeometry x="20" y="160" width="60" height="30" as="geometry"/>
                </mxCell>
                <mxCell id="wV06e1xKJ8BwPfpu0Lhn-11" value="Ask for Help" style="text;html=1;strokeColor=none;fillColor=none;align=center;verticalAlign=middle;whiteSpace=wrap;rounded=0;" vertex="1" parent="1">
                    <mxGeometry x="30" y="330" width="95" height="30" as="geometry"/>
                </mxCell>
                <mxCell id="wV06e1xKJ8BwPfpu0Lhn-12" value="This service is mainly composed by 3 usecases" style="text;html=1;strokeColor=none;fillColor=none;align=center;verticalAlign=middle;whiteSpace=wrap;rounded=0;" vertex="1" parent="1">
                    <mxGeometry x="20" y="50" width="170" height="60" as="geometry"/>
                </mxCell>
                <mxCell id="wV06e1xKJ8BwPfpu0Lhn-13" value="Do Help" style="text;html=1;strokeColor=none;fillColor=none;align=center;verticalAlign=middle;whiteSpace=wrap;rounded=0;" vertex="1" parent="1">
                    <mxGeometry x="30" y="520" width="95" height="30" as="geometry"/>
                </mxCell>
                <mxCell id="wV06e1xKJ8BwPfpu0Lhn-16" style="edgeStyle=none;html=1;entryX=0;entryY=0.5;entryDx=0;entryDy=0;" edge="1" parent="1" source="wV06e1xKJ8BwPfpu0Lhn-15" target="4">
                    <mxGeometry relative="1" as="geometry">
                        <Array as="points">
                            <mxPoint x="280" y="400"/>
                        </Array>
                    </mxGeometry>
                </mxCell>
                <mxCell id="wV06e1xKJ8BwPfpu0Lhn-17" value="Help message&lt;br&gt;（Create/Edit/Delete）" style="edgeLabel;html=1;align=center;verticalAlign=middle;resizable=0;points=[];" vertex="1" connectable="0" parent="wV06e1xKJ8BwPfpu0Lhn-16">
                    <mxGeometry x="-0.5605" relative="1" as="geometry">
                        <mxPoint x="16" as="offset"/>
                    </mxGeometry>
                </mxCell>
                <mxCell id="wV06e1xKJ8BwPfpu0Lhn-15" value="User" style="ellipse;whiteSpace=wrap;html=1;" vertex="1" parent="1">
                    <mxGeometry x="50" y="380" width="90" height="40" as="geometry"/>
                </mxCell>
                <mxCell id="wV06e1xKJ8BwPfpu0Lhn-19" value="" style="endArrow=classic;html=1;entryX=0.25;entryY=1;entryDx=0;entryDy=0;exitX=0.25;exitY=0;exitDx=0;exitDy=0;" edge="1" parent="1" source="4" target="2">
                    <mxGeometry width="50" height="50" relative="1" as="geometry">
                        <mxPoint x="340" y="410" as="sourcePoint"/>
                        <mxPoint x="390" y="360" as="targetPoint"/>
                    </mxGeometry>
                </mxCell>
                <mxCell id="wV06e1xKJ8BwPfpu0Lhn-20" value="account check" style="edgeLabel;html=1;align=center;verticalAlign=middle;resizable=0;points=[];" vertex="1" connectable="0" parent="wV06e1xKJ8BwPfpu0Lhn-19">
                    <mxGeometry x="-0.3547" y="-4" relative="1" as="geometry">
                        <mxPoint as="offset"/>
                    </mxGeometry>
                </mxCell>
                <mxCell id="wV06e1xKJ8BwPfpu0Lhn-23" value="User DB" style="shape=cube;whiteSpace=wrap;html=1;boundedLbl=1;backgroundOutline=1;darkOpacity=0.05;darkOpacity2=0.1;" vertex="1" parent="1">
                    <mxGeometry x="560" y="180" width="120" height="80" as="geometry"/>
                </mxCell>
                <mxCell id="wV06e1xKJ8BwPfpu0Lhn-25" value="Help DB" style="shape=cube;whiteSpace=wrap;html=1;boundedLbl=1;backgroundOutline=1;darkOpacity=0.05;darkOpacity2=0.1;" vertex="1" parent="1">
                    <mxGeometry x="600" y="405" width="120" height="80" as="geometry"/>
                </mxCell>
                <mxCell id="wV06e1xKJ8BwPfpu0Lhn-33" style="edgeStyle=none;html=1;" edge="1" parent="1" source="wV06e1xKJ8BwPfpu0Lhn-30">
                    <mxGeometry relative="1" as="geometry">
                        <mxPoint x="360" y="470" as="targetPoint"/>
                        <Array as="points">
                            <mxPoint x="300" y="585"/>
                        </Array>
                    </mxGeometry>
                </mxCell>
                <mxCell id="wV06e1xKJ8BwPfpu0Lhn-34" value="select and answer help, then send FINISH message&amp;nbsp;" style="edgeLabel;html=1;align=center;verticalAlign=middle;resizable=0;points=[];" vertex="1" connectable="0" parent="wV06e1xKJ8BwPfpu0Lhn-33">
                    <mxGeometry x="-0.1871" y="3" relative="1" as="geometry">
                        <mxPoint as="offset"/>
                    </mxGeometry>
                </mxCell>
                <mxCell id="wV06e1xKJ8BwPfpu0Lhn-30" value="User" style="ellipse;whiteSpace=wrap;html=1;" vertex="1" parent="1">
                    <mxGeometry x="50" y="565" width="90" height="40" as="geometry"/>
                </mxCell>
                <mxCell id="wV06e1xKJ8BwPfpu0Lhn-35" value="Show help indexes" style="text;html=1;strokeColor=none;fillColor=none;align=center;verticalAlign=middle;whiteSpace=wrap;rounded=0;" vertex="1" parent="1">
                    <mxGeometry x="40" y="670" width="95" height="30" as="geometry"/>
                </mxCell>
            </root>
        </mxGraphModel>
    </diagram>
</mxfile>